HIERARCHY
ROOT hips
{
  OFFSET 0 10.6860622 2.3727825e-15
  CHANNELS 6 Xposition Yposition Zposition Yrotation Xrotation Zrotation
  JOINT leftUpperLeg
  {
    OFFSET 0.6642549969 -0.9402397400000004 0
    CHANNELS 3 Yrotation Xrotation Zrotation
    JOINT leftLowerLeg
    {
      OFFSET 0 -3.997221335632195 0
      CHANNELS 3 Yrotation Xrotation Zrotation
      JOINT leftFoot
      {
        OFFSET -0.13777839790000004 -4.6145792000000005 -0.22186036399999998
        CHANNELS 3 Yrotation Xrotation Zrotation
        JOINT leftToes
        {
          OFFSET -0.03777410834999995 -0.9130806927000008 0.85230013
          CHANNELS 3 Yrotation Xrotation Zrotation
          End Site
          {
            OFFSET -0.03777410834999995 -0.9130806927000008 0.85230013
          }
        }
      }
    }
  }
  JOINT rightUpperLeg
  {
    OFFSET -0.6642778626 -0.9402397400000004 0
    CHANNELS 3 Yrotation Xrotation Zrotation
    JOINT rightLowerLeg
    {
      OFFSET 0 -3.997221452859387 0
      CHANNELS 3 Yrotation Xrotation Zrotation
      JOINT rightFoot
      {
        OFFSET 0.1377926176 -4.6145792000000005 -0.22185782299999995
        CHANNELS 3 Yrotation Xrotation Zrotation
        JOINT rightToes
        {
          OFFSET 0.037780746850000047 -0.9130806927000008 0.85230167
          CHANNELS 3 Yrotation Xrotation Zrotation
          End Site
          {
            OFFSET 0.037780746850000047 -0.9130806927000008 0.85230167
          }
        }
      }
    }
  }
  JOINT spine
  {
    OFFSET 0 0.13988381660000015 0
    CHANNELS 3 Yrotation Xrotation Zrotation
    JOINT chest
    {
      OFFSET 0 0.6191039003973773 0
      CHANNELS 3 Yrotation Xrotation Zrotation
      JOINT upperChest
      {
        OFFSET 0 0.9855186130586943 0
        CHANNELS 3 Yrotation Xrotation Zrotation
        JOINT leftShoulder
        {
          OFFSET 0.1807663869 1.5087829790000005 0
          CHANNELS 3 Yrotation Xrotation Zrotation
          JOINT leftUpperArm
          {
            OFFSET 0.5985063006419806 0 0
            CHANNELS 3 Yrotation Xrotation Zrotation
            JOINT leftLowerArm
            {
              OFFSET 2.2993332369501065 0 0
              CHANNELS 3 Yrotation Xrotation Zrotation
              JOINT leftHand
              {
                OFFSET 2.395047042602395 0 0
                CHANNELS 3 Yrotation Xrotation Zrotation
                JOINT leftIndexProximal
                {
                  OFFSET 0.5766295810000004 0.04556643899499946 0.17265095988184
                  CHANNELS 3 Yrotation Xrotation Zrotation
                  JOINT leftIndexIntermediate
                  {
                    OFFSET 0.2957229000000008 -0.019352197700001517 -0.007932640616999987
                    CHANNELS 3 Yrotation Xrotation Zrotation
                    JOINT leftIndexDistal
                    {
                      OFFSET 0.19008243099999922 -0.012484908149998475 -0.002786250786000012
                      CHANNELS 3 Yrotation Xrotation Zrotation
                      End Site
                      {
                        OFFSET 0.19008243099999922 -0.012484908149998475 -0.002786250786000012
                      }
                    }
                  }
                }
                JOINT leftMiddleProximal
                {
                  OFFSET 0.5834975091000001 0.0524350405149987 0.02204081888183999
                  CHANNELS 3 Yrotation Xrotation Zrotation
                  JOINT leftMiddleIntermediate
                  {
                    OFFSET 0.33880573540000003 -0.019871473270000717 -0.00000971183179999946
                    CHANNELS 3 Yrotation Xrotation Zrotation
                    JOINT leftMiddleDistal
                    {
                      OFFSET 0.20676022730000088 -0.012221336379999448 0.0001471936708000235
                      CHANNELS 3 Yrotation Xrotation Zrotation
                      End Site
                      {
                        OFFSET 0.20676022730000088 -0.012221336379999448 0.0001471936708000235
                      }
                    }
                  }
                }
                JOINT leftLittleProximal
                {
                  OFFSET 0.5344154683999995 -0.012880921405001189 -0.24414037221816004
                  CHANNELS 3 Yrotation Xrotation Zrotation
                  JOINT leftLittleIntermediate
                  {
                    OFFSET 0.21758961730000093 -0.011650919939999227 0.011893592810000034
                    CHANNELS 3 Yrotation Xrotation Zrotation
                    JOINT leftLittleDistal
                    {
                      OFFSET 0.1475273964999999 -0.008152365682999818 0.006001092492999946
                      CHANNELS 3 Yrotation Xrotation Zrotation
                      End Site
                      {
                        OFFSET 0.1475273964999999 -0.008152365682999818 0.006001092492999946
                      }
                    }
                  }
                }
                JOINT leftRingProximal
                {
                  OFFSET 0.5799399463000003 0.026911854694997794 -0.12150566991816003
                  CHANNELS 3 Yrotation Xrotation Zrotation
                  JOINT leftRingIntermediate
                  {
                    OFFSET 0.26167887460000006 -0.013480186499999602 0.010996293000000053
                    CHANNELS 3 Yrotation Xrotation Zrotation
                    JOINT leftRingDistal
                    {
                      OFFSET 0.17667108799999987 -0.008990287899999228 0.0055541023999999065
                      CHANNELS 3 Yrotation Xrotation Zrotation
                      End Site
                      {
                        OFFSET 0.17667108799999987 -0.008990287899999228 0.0055541023999999065
                      }
                    }
                  }
                }
                JOINT leftThumbProximal
                {
                  OFFSET 0.11018806699999972 -0.09448718900500053 0.17047963138184
                  CHANNELS 3 Yrotation Xrotation Zrotation
                  JOINT leftThumbIntermediate
                  {
                    OFFSET 0.31062601459999983 -0.08126270900000132 0.15443142000000007
                    CHANNELS 3 Yrotation Xrotation Zrotation
                    JOINT leftThumbDistal
                    {
                      OFFSET 0.21627175790000086 -0.08833193599999878 0.018771167799999988
                      CHANNELS 3 Yrotation Xrotation Zrotation
                      End Site
                      {
                        OFFSET 0.21627175790000086 -0.08833193599999878 0.018771167799999988
                      }
                    }
                  }
                }
              }
            }
          }
        }
        JOINT neck
        {
          OFFSET 0 1.5463305265074576 0
          CHANNELS 3 Yrotation Xrotation Zrotation
          JOINT head
          {
            OFFSET 0 0.8456443600000344 0
            CHANNELS 3 Yrotation Xrotation Zrotation
            JOINT leftEye
            {
              OFFSET 0.30408573140000006 0.5104519199999995 0.1276382305
              CHANNELS 3 Yrotation Xrotation Zrotation
              End Site
              {
                OFFSET 0.30408573140000006 0.5104519199999995 0.1276382305
              }
            }
            JOINT rightEye
            {
              OFFSET -0.30409491089999996 0.5104519199999995 0.1276379445
              CHANNELS 3 Yrotation Xrotation Zrotation
              End Site
              {
                OFFSET -0.30409491089999996 0.5104519199999995 0.1276379445
              }
            }
            JOINT jaw
            {
              OFFSET -3.155239131000001e-7 -0.11984121820000082 0.60178107
              CHANNELS 3 Yrotation Xrotation Zrotation
              End Site
              {
                OFFSET -3.155239131000001e-7 -0.11984121820000082 0.60178107
              }
            }
          }
        }
        JOINT rightShoulder
        {
          OFFSET -0.1807303465 1.5087829790000005 0
          CHANNELS 3 Yrotation Xrotation Zrotation
          JOINT rightUpperArm
          {
            OFFSET -0.5985063796536958 0 0
            CHANNELS 3 Yrotation Xrotation Zrotation
            JOINT rightLowerArm
            {
              OFFSET -2.2993322059002854 0 0
              CHANNELS 3 Yrotation Xrotation Zrotation
              JOINT rightHand
              {
                OFFSET -2.395045314457259 0 0
                CHANNELS 3 Yrotation Xrotation Zrotation
                JOINT rightIndexProximal
                {
                  OFFSET -0.5764487688300002 0.0441371204405987 0.17361932004999997
                  CHANNELS 3 Yrotation Xrotation Zrotation
                  JOINT rightIndexIntermediate
                  {
                    OFFSET -0.29573011380000047 -0.01934826376999843 -0.007698921482999974
                    CHANNELS 3 Yrotation Xrotation Zrotation
                    JOINT rightIndexDistal
                    {
                      OFFSET -0.19008373999999884 -0.012503266380000655 -0.0026365778999999897
                      CHANNELS 3 Yrotation Xrotation Zrotation
                      End Site
                      {
                        OFFSET -0.19008373999999884 -0.012503266380000655 -0.0026365778999999897
                      }
                    }
                  }
                }
                JOINT rightMiddleProximal
                {
                  OFFSET -0.5834852037300005 0.05211639405060153 0.02307162440000001
                  CHANNELS 3 Yrotation Xrotation Zrotation
                  JOINT rightMiddleIntermediate
                  {
                    OFFSET -0.33880114510000003 -0.019952774050000954 0.0002455003561999819
                    CHANNELS 3 Yrotation Xrotation Zrotation
                    JOINT rightMiddleDistal
                    {
                      OFFSET -0.20675694929999955 -0.012273788999999091 0.00030209124000002766
                      CHANNELS 3 Yrotation Xrotation Zrotation
                      End Site
                      {
                        OFFSET -0.20675694929999955 -0.012273788999999091 0.00030209124000002766
                      }
                    }
                  }
                }
                JOINT rightLittleProximal
                {
                  OFFSET -0.5346811737299992 -0.011214256288399227 -0.24363941305000003
                  CHANNELS 3 Yrotation Xrotation Zrotation
                  JOINT rightLittleIntermediate
                  {
                    OFFSET -0.21757715980000092 -0.011771559690000988 0.01201554387
                    CHANNELS 3 Yrotation Xrotation Zrotation
                    JOINT rightLittleDistal
                    {
                      OFFSET -0.1475201849000004 -0.00822055339600003 0.006082065407000015
                      CHANNELS 3 Yrotation Xrotation Zrotation
                      End Site
                      {
                        OFFSET -0.1475201849000004 -0.00822055339600003 0.006082065407000015
                      }
                    }
                  }
                }
                JOINT rightRingProximal
                {
                  OFFSET -0.5800810755299999 0.027657985680600072 -0.12066365025000003
                  CHANNELS 3 Yrotation Xrotation Zrotation
                  JOINT rightRingIntermediate
                  {
                    OFFSET -0.26166445029999974 -0.013623118409999302 0.011164098990000045
                    CHANNELS 3 Yrotation Xrotation Zrotation
                    JOINT rightRingDistal
                    {
                      OFFSET -0.17666387530000027 -0.009072900100000503 0.005668185599999959
                      CHANNELS 3 Yrotation Xrotation Zrotation
                      End Site
                      {
                        OFFSET -0.17666387530000027 -0.009072900100000503 0.005668185599999959
                      }
                    }
                  }
                }
                JOINT rightThumbProximal
                {
                  OFFSET -0.10997596379000074 -0.09577489355940072 0.16989765924999997
                  CHANNELS 3 Yrotation Xrotation Zrotation
                  JOINT rightThumbIntermediate
                  {
                    OFFSET -0.31036620999999986 -0.08229339117999834 0.15440884469999996
                    CHANNELS 3 Yrotation Xrotation Zrotation
                    JOINT rightThumbDistal
                    {
                      OFFSET -0.21631306399999906 -0.08825326400000111 0.018656797720000014
                      CHANNELS 3 Yrotation Xrotation Zrotation
                      End Site
                      {
                        OFFSET -0.21631306399999906 -0.08825326400000111 0.018656797720000014
                      }
                    }
                  }
                }
              }
            }
          }
        }
      }
    }
  }
}
MOTION
Frames: 9
Frame Time: 0.03333333333333333
0 -10.386017323533302 -1.4261307831655974 0 -89.89720792745813 0 -21.12009623131032 -33.52555487706908 20.165105888426954 34.213813062652136 25.36499961221473 -31.468335913167486 8.757765972225336 27.218619677581437 11.770813361598549 0 0 0 21.320122597811594 -34.52774063260508 -17.438380525769052 -47.84554729309789 35.93006254026408 13.392290803511337 -8.762499830007723 27.21797642174377 -11.775551539859668 0 0 0 0 2.350918086581592 0 -0.7035249092311637 25.740792726431383 -0.443120504831712 0 0 0 3.2083087851483394 -10.915577331346165 -20.1126575635339 7.532987711553802 21.453831574704 -58.97322429242991 -41.31093849893792 32.540049484596295 7.1310068000182145 -0.763656478325148 26.76583877154918 -10.442566119356856 0 0 0 0 0 0 0 0 0 0 0 0 0 0 0 0 0 0 0 0 0 0 0 0 0 0 0 0 0 0 0 0 0 0 0 0 0 0 0 0 0 0 0 0 0 -0.04531721189202098 11.121449722261149 -8.414703351404578 35.5813214760185 -5.8607191815220245 8.115641222578736 0 0 0 0 0 0 0 0 0 -3.5255710480979516 -10.658643521116556 19.799993783905318 -7.212475299749249 21.511954399648975 59.607906309513375 41.92535534785979 32.66359827760082 -6.990338908765517 -1.2302634108440624 25.309265659527355 9.766235067536131 0 0 0 0 0 0 0 0 0 0 0 0 0 0 0 0 0 0 0 0 0 0 0 0 0 0 0 0 0 0 0 0 0 0 0 0 0 0 0 0 0 0 0 0 0
0 -10.386017323533302 -1.4261307831655974 0 -89.79825881092042 0 -21.12009623131032 -33.52555487706908 20.165105888426954 34.165997867626935 25.406631690172812 -31.416181838272347 8.757765972225336 27.218619677581437 11.770813361598549 0 0 0 21.320122597811594 -34.52774063260508 -17.438380525769052 -47.79138090570906 36.094866667930155 13.39014952973522 -8.762500415038627 27.217978341904924 -11.775552479734905 0 0 0 0 2.774590614458723 0 -0.7000621980316609 25.144597688985094 -0.43505365100424775 0 0 0 3.3195651507086352 -10.671796874123379 -20.133367357452958 7.532987711553802 21.453831574704 -58.97322429242991 -41.31093849893792 32.540049484596295 7.1310062975544675 -0.7574104514407924 26.75743000201203 -10.440741934102293 0 0 0 0 0 0 0 0 0 0 0 0 0 0 0 0 0 0 0 0 0 0 0 0 0 0 0 0 0 0 0 0 0 0 0 0 0 0 0 0 0 0 0 0 0 -0.04774888759264725 11.15651568510849 -8.380127245387824 35.5813214760185 -5.860720039781747 8.115642072243144 0 0 0 0 0 0 0 0 0 -3.6324394885773645 -10.418247681296736 19.81003794410392 -7.212474844530146 21.511956235048206 59.60790947588361 41.92535534785979 32.66359827760082 -6.990338908765517 -1.1598178555593284 25.401750844373318 9.781579943093808 0 0 0 0 0 0 0 0 0 0 0 0 0 0 0 0 0 0 0 0 0 0 0 0 0 0 0 0 0 0 0 0 0 0 0 0 0 0 0 0 0 0 0 0 0
0 -10.386017323533302 -1.4261307831655974 180 -89.59797450159867 180 -21.12009623131032 -33.52555487706908 20.165105888426954 34.070438286667624 25.490010886794167 -31.311927271854863 8.757765972225336 27.218619677581437 11.770813361598549 0 0 0 21.320122597811594 -34.52774063260508 -17.438380525769052 -47.68269982190452 36.42452010493832 13.38643283825343 -8.762500415038627 27.217978341904924 -11.775552479734905 0 0 0 0 3.62277572519948 0 -0.6934480195817871 23.94984751008806 -0.4191213474235935 0 0 0 3.5416376823917055 -10.18393221751105 -20.17332039569575 7.532987711553802 21.453831574704 -58.97322429242991 -41.31093849893792 32.540049484596295 7.1310062975544675 -0.7449212202055505 26.74061624119499 -10.437097193533672 0 0 0 0 0 0 0 0 0 0 0 0 0 0 0 0 0 0 0 0 0 0 0 0 0 0 0 0 0 0 0 0 0 0 0 0 0 0 0 0 0 0 0 0 0 -0.05254784100752388 11.226659453961044 -8.310964399518157 35.58132626561709 -5.860720468911609 8.115641222578736 0 0 0 0 0 0 0 0 0 -3.8458907913710463 -9.937221118632598 19.828757027250113 -7.212474844530146 21.511956235048206 59.60790947588361 41.92535534785979 32.66359827760082 -6.990338908765517 -1.0186727847509611 25.586678876345903 9.812685308833236 0 0 0 0 0 0 0 0 0 0 0 0 0 0 0 0 0 0 0 0 0 0 0 0 0 0 0 0 0 0 0 0 0 0 0 0 0 0 0 0 0 0 0 0 0
0 -10.386017323533302 -1.4261307831655974 180 -89.49797886046085 180 -21.12009623131032 -33.52555487706908 20.165105888426954 34.022695759592075 25.53176191403526 -31.25982485022056 8.757765972225336 27.218619677581437 11.770813361598549 0 0 0 21.320122597811594 -34.52774063260508 -17.438380525769052 -47.62818676652634 36.58938085211549 13.384865830800688 -8.762500415038627 27.217978341904924 -11.775552479734905 0 0 0 0 4.047241152168689 0 -0.6902937928083235 23.35142402857943 -0.41125212397318495 0 0 0 3.652456189596978 -9.939858733320733 -20.192558307418622 7.532987711553802 21.453831574704 -58.97322429242991 -41.31093849893792 32.540049484596295 7.1310062975544675 -0.7386765213582045 26.732203601422626 -10.435274757452698 0 0 0 0 0 0 0 0 0 0 0 0 0 0 0 0 0 0 0 0 0 0 0 0 0 0 0 0 0 0 0 0 0 0 0 0 0 0 0 0 0 0 0 0 0 -0.05491609474176523 11.261735548053101 -8.276374106974268 35.5813214760185 -5.860719610651886 8.115641222578736 0 0 0 0 0 0 0 0 0 -3.9524745015558853 -9.696602206967837 19.837420773151795 -7.212475299749249 21.511954399648975 59.607906309513375 41.92535534785979 32.66359827760082 -6.990338908765517 -0.9479718603833625 25.679120245898364 9.828444807235172 0 0 0 0 0 0 0 0 0 0 0 0 0 0 0 0 0 0 0 0 0 0 0 0 0 0 0 0 0 0 0 0 0 0 0 0 0 0 0 0 0 0 0 0 0
0 -10.386017323533302 -1.4261307831655974 180 -89.39769072762718 180 -21.12009623131032 -33.52555487706908 20.165105888426954 33.97497928472815 25.57355019440753 -31.207745069413058 8.757765972225336 27.218619677581437 11.770813361598549 0 0 0 21.320122597811594 -34.52774063260508 -17.438380525769052 -47.573567015701734 36.75424499315014 13.38349039277455 -8.762500415038627 27.217978341904924 -11.775552479734905 0 0 0 0 4.4717065376945495 0 -0.6872426083514562 22.753000243518937 -0.4034535101802721 0 0 0 3.7631092694147994 -9.695748186222428 -20.21130229800486 7.532987711553802 21.453831574704 -58.97322429242991 -41.31093849893792 32.540049484596295 7.1310062975544675 -0.7324325667959123 26.723791583721958 -10.433452590874916 0 0 0 0 0 0 0 0 0 0 0 0 0 0 0 0 0 0 0 0 0 0 0 0 0 0 0 0 0 0 0 0 0 0 0 0 0 0 0 0 0 0 0 0 0 -0.05726304056838811 11.296812435987283 -8.241781395562764 35.581318683960546 -5.860718752392164 8.115641222578736 0 0 0 0 0 0 0 0 0 -4.058946084643697 -9.45596715272572 19.84562539086215 -7.212475754968355 21.511954399648975 59.60790314314333 41.92535534785979 32.66359827760082 -6.990338908765517 -0.8771878004120546 25.77154616032868 9.844344420146255 0 0 0 0 0 0 0 0 0 0 0 0 0 0 0 0 0 0 0 0 0 0 0 0 0 0 0 0 0 0 0 0 0 0 0 0 0 0 0 0 0 0 0 0 0
0 -10.386017323533302 -1.4261307831655974 180 -89.19764939945027 180 -21.12009623131032 -33.52555487706908 20.165105888426954 33.87961140521873 25.657252019995315 -31.103651187476036 8.757765972225336 27.218619677581437 11.770813361598549 0 0 0 21.320122597811594 -34.52774063260508 -17.438380525769052 -47.46397034773065 37.08400615487833 13.381315623179574 -8.762500415038627 27.217978341904924 -11.775552479734905 0 0 0 0 5.32129385569318 0 -0.6814335642349377 21.55431241189786 -0.38803513563105474 0 0 0 3.9840060243166935 -9.207273117496031 -20.247331566699323 7.532987711553802 21.453831574704 -58.97322429242991 -41.31093849893792 32.540049484596295 7.1310062975544675 -0.7199516817086006 26.706982793543098 -10.429821233718467 0 0 0 0 0 0 0 0 0 0 0 0 0 0 0 0 0 0 0 0 0 0 0 0 0 0 0 0 0 0 0 0 0 0 0 0 0 0 0 0 0 0 0 0 0 -0.06189234841253666 11.366976484848454 -8.172582974885456 35.5813214760185 -5.8607191815220245 8.115641222578736 0 0 0 0 0 0 0 0 0 -4.271630976950685 -8.974510790048061 19.860667609502844 -7.212474844530146 21.511956235048206 59.60790947588361 41.92535534785979 32.66359827760082 -6.990338908765517 -0.7353597838764511 25.956350543783277 9.876562685699247 0 0 0 0 0 0 0 0 0 0 0 0 0 0 0 0 0 0 0 0 0 0 0 0 0 0 0 0 0 0 0 0 0 0 0 0 0 0 0 0 0 0 0 0 0
0 -10.386017323533302 -1.4261307831655974 180 -89.09756026039749 180 -21.12009623131032 -33.52555487706908 20.165105888426954 33.83196602110408 25.699161907711947 -31.05163157038583 8.757765972225336 27.218619677581437 11.770813361598549 0 0 0 21.320122597811594 -34.52774063260508 -17.438380525769052 -47.40899187714375 37.2489060610942 13.380521868658144 -8.762500415038627 27.217978341904924 -11.775552479734905 0 0 0 0 5.746369856125503 0 -0.6786731232164205 20.954175188352448 -0.3804122508516851 0 0 0 4.094253301681833 -8.962919971560925 -20.26461555904512 7.532987711553802 21.453831574704 -58.97322429242991 -41.31093849893792 32.540049484596295 7.1310062975544675 -0.7137104711847592 26.698572639154744 -10.428003385529637 0 0 0 0 0 0 0 0 0 0 0 0 0 0 0 0 0 0 0 0 0 0 0 0 0 0 0 0 0 0 0 0 0 0 0 0 0 0 0 0 0 0 0 0 0 -0.0641751762835867 11.40206454557155 -8.137978513129585 35.5813214760185 -5.8607191815220245 8.115641222578736 0 0 0 0 0 0 0 0 0 -4.3778472872690575 -8.733702842281534 19.867504609353404 -7.212474844530146 21.511956235048206 59.60790947588361 41.92535534785979 32.66359827760082 -6.990338908765517 -0.6643163462205279 26.04873132051878 9.892882520956277 0 0 0 0 0 0 0 0 0 0 0 0 0 0 0 0 0 0 0 0 0 0 0 0 0 0 0 0 0 0 0 0 0 0 0 0 0 0 0 0 0 0 0 0 0
0 -10.386017323533302 -1.4261307831655974 180 -88.99750842441348 180 -21.12009623131032 -33.52555487706908 20.165105888426954 33.78434617161874 25.74110930158107 -30.99963234250333 8.757765972225336 27.218619677581437 11.770813361598549 0 0 0 21.320122597811594 -34.52774063260508 -17.438380525769052 -47.35389168537317 37.41380645940349 13.379927744436376 -8.762500415038627 27.217978341904924 -11.775552479734905 0 0 0 0 6.1714457151698365 0 -0.676008678248089 20.354035255731016 -0.37285024591233135 0 0 0 4.204352423617086 -8.718534142982609 -20.281410018391686 7.532987711553802 21.453831574704 -58.97322429242991 -41.31093849893792 32.540049484596295 7.1310062975544675 -0.7074699906120027 26.690161194375477 -10.42618743744068 0 0 0 0 0 0 0 0 0 0 0 0 0 0 0 0 0 0 0 0 0 0 0 0 0 0 0 0 0 0 0 0 0 0 0 0 0 0 0 0 0 0 0 0 0 -0.06643667188430545 11.43715432716622 -8.103371419700478 35.581318683960546 -5.860718752392164 8.115641222578736 0 0 0 0 0 0 0 0 0 -4.483967294828363 -8.492883670876 19.873885723332055 -7.212474844530146 21.511956235048206 59.60790947588361 41.92535534785979 32.66359827760082 -6.990338908765517 -0.5931873948612933 26.141095560205876 9.90934398816093 0 0 0 0 0 0 0 0 0 0 0 0 0 0 0 0 0 0 0 0 0 0 0 0 0 0 0 0 0 0 0 0 0 0 0 0 0 0 0 0 0 0 0 0 0
0 -10.386017323533302 -1.4261307831655974 180 -88.79747843140649 180 -21.12009623131032 -33.52555487706908 20.165105888426954 33.68918151530689 25.825120650815197 -30.895684990299817 8.7577669211177 27.21862159775368 11.770814301495438 0 0 0 21.320122597811594 -34.52774063260508 -17.438380525769052 -47.243340391714895 37.74364878633825 13.379331866220149 -8.762500415038627 27.217978341904924 -11.775552479734905 0 0 0 0 7.022060669722274 0 -0.6709544885688122 19.152436031586934 -0.3578822314036993 0 0 0 4.424174876247284 -8.229567570702496 -20.313562093236147 7.532987711553802 21.453831574704 -58.97322429242991 -41.31093849893792 32.540049484596295 7.1310062975544675 -0.6949930323180673 26.673345899492674 -10.42255960745325 0 0 0 0 0 0 0 0 0 0 0 0 0 0 0 0 0 0 0 0 0 0 0 0 0 0 0 0 0 0 0 0 0 0 0 0 0 0 0 0 0 0 0 0 0 -0.07089589380260584 11.507340850763745 -8.03413791928747 35.581318683960546 -5.860718752392164 8.115641222578736 0 0 0 0 0 0 0 0 0 -4.695977067031125 -8.011110253459204 19.885287317499607 -7.212474844530146 21.511956235048206 59.60790947588361 41.92535534785979 32.66359827760082 -6.990338908765517 -0.45066452545291624 26.32577142275712 9.942688505153654 0 0 0 0 0 0 0 0 0 0 0 0 0 0 0 0 0 0 0 0 0 0 0 0 0 0 0 0 0 0 0 0 0 0 0 0 0 0 0 0 0 0 0 0 0
